<mxfile host="app.diagrams.net" agent="Mozilla/5.0 (Windows NT 10.0; Win64; x64) AppleWebKit/537.36 (KHTML, like Gecko) Chrome/137.0.0.0 Safari/537.36 OPR/121.0.0.0" version="28.2.0">
  <diagram name="Страница — 4" id="kIdrWCE_SMCm_MsIo1sR">
    <mxGraphModel dx="1384" dy="755" grid="1" gridSize="10" guides="1" tooltips="1" connect="1" arrows="1" fold="1" page="1" pageScale="1" pageWidth="827" pageHeight="1169" math="0" shadow="0">
      <root>
        <mxCell id="0" />
        <mxCell id="1" parent="0" />
        <mxCell id="oDxIAcgtjFUgrs6h1Eg3-10" style="edgeStyle=orthogonalEdgeStyle;rounded=0;orthogonalLoop=1;jettySize=auto;html=1;exitX=0.5;exitY=1;exitDx=0;exitDy=0;entryX=0.5;entryY=0;entryDx=0;entryDy=0;fontFamily=Helvetica;fontSize=8;fontColor=default;endArrow=none;endFill=0;" parent="1" source="oDxIAcgtjFUgrs6h1Eg3-1" edge="1">
          <mxGeometry relative="1" as="geometry">
            <mxPoint x="491" y="415" as="targetPoint" />
          </mxGeometry>
        </mxCell>
        <mxCell id="oDxIAcgtjFUgrs6h1Eg3-1" value="Начало" style="rounded=1;whiteSpace=wrap;html=1;arcSize=50;fontSize=8;" parent="1" vertex="1">
          <mxGeometry x="446" y="375" width="90" height="20" as="geometry" />
        </mxCell>
        <mxCell id="oDxIAcgtjFUgrs6h1Eg3-11" style="edgeStyle=orthogonalEdgeStyle;rounded=0;orthogonalLoop=1;jettySize=auto;html=1;exitX=0;exitY=0.5;exitDx=0;exitDy=0;fontFamily=Helvetica;fontSize=8;fontColor=default;endArrow=openThin;endFill=0;" parent="1" source="oDxIAcgtjFUgrs6h1Eg3-6" edge="1">
          <mxGeometry relative="1" as="geometry">
            <mxPoint x="491" y="405" as="targetPoint" />
            <Array as="points">
              <mxPoint x="423" y="495" />
              <mxPoint x="423" y="405" />
            </Array>
          </mxGeometry>
        </mxCell>
        <mxCell id="oDxIAcgtjFUgrs6h1Eg3-15" style="edgeStyle=orthogonalEdgeStyle;rounded=0;orthogonalLoop=1;jettySize=auto;html=1;exitX=0.5;exitY=1;exitDx=0;exitDy=0;entryX=0.5;entryY=0;entryDx=0;entryDy=0;fontFamily=Helvetica;fontSize=8;fontColor=default;endArrow=none;endFill=0;" parent="1" source="oDxIAcgtjFUgrs6h1Eg3-6" target="oDxIAcgtjFUgrs6h1Eg3-14" edge="1">
          <mxGeometry relative="1" as="geometry" />
        </mxCell>
        <mxCell id="oDxIAcgtjFUgrs6h1Eg3-6" value="Существует ли пользователь?" style="rhombus;whiteSpace=wrap;html=1;rounded=1;strokeColor=default;align=center;verticalAlign=middle;arcSize=0;fontFamily=Helvetica;fontSize=7;fontColor=default;fillColor=default;" parent="1" vertex="1">
          <mxGeometry x="456" y="465" width="70" height="60" as="geometry" />
        </mxCell>
        <mxCell id="GW92BsjV6hmsyaIqP19_-4" style="edgeStyle=orthogonalEdgeStyle;rounded=0;orthogonalLoop=1;jettySize=auto;html=1;exitX=0.5;exitY=1;exitDx=0;exitDy=0;fontFamily=Helvetica;fontSize=8;fontColor=default;endArrow=none;endFill=0;entryX=0.5;entryY=0;entryDx=0;entryDy=0;" parent="1" source="oDxIAcgtjFUgrs6h1Eg3-14" target="bg4ewjE8nQRo9-LeQixM-3" edge="1">
          <mxGeometry relative="1" as="geometry">
            <mxPoint x="491.0114942528736" y="615" as="targetPoint" />
            <Array as="points">
              <mxPoint x="491" y="627" />
            </Array>
          </mxGeometry>
        </mxCell>
        <mxCell id="oDxIAcgtjFUgrs6h1Eg3-14" value="Роль пользователя" style="rhombus;whiteSpace=wrap;html=1;rounded=1;strokeColor=default;align=center;verticalAlign=middle;arcSize=0;fontFamily=Helvetica;fontSize=8;fontColor=default;fillColor=default;" parent="1" vertex="1">
          <mxGeometry x="456" y="535" width="70" height="60" as="geometry" />
        </mxCell>
        <mxCell id="75zCX1AZxcEcjXUOBU9U-6" style="edgeStyle=orthogonalEdgeStyle;rounded=0;orthogonalLoop=1;jettySize=auto;html=1;exitX=0.5;exitY=1;exitDx=0;exitDy=0;entryX=0.5;entryY=0;entryDx=0;entryDy=0;fontFamily=Helvetica;fontSize=8;fontColor=default;endArrow=none;endFill=0;" parent="1" source="oDxIAcgtjFUgrs6h1Eg3-19" target="75zCX1AZxcEcjXUOBU9U-7" edge="1">
          <mxGeometry relative="1" as="geometry">
            <mxPoint x="344" y="695" as="targetPoint" />
            <Array as="points">
              <mxPoint x="344" y="755" />
              <mxPoint x="492" y="755" />
            </Array>
          </mxGeometry>
        </mxCell>
        <mxCell id="oDxIAcgtjFUgrs6h1Eg3-19" value="Регистрация заявки&lt;div&gt;Обработка заявки&lt;/div&gt;&lt;div&gt;Назначение мастера&lt;/div&gt;&lt;div&gt;Формирование отчёта&lt;/div&gt;" style="rounded=0;whiteSpace=wrap;html=1;strokeColor=default;align=center;verticalAlign=middle;arcSize=50;fontFamily=Helvetica;fontSize=8;fontColor=default;fillColor=default;" parent="1" vertex="1">
          <mxGeometry x="283" y="625" width="122" height="50" as="geometry" />
        </mxCell>
        <mxCell id="bg4ewjE8nQRo9-LeQixM-9" style="edgeStyle=orthogonalEdgeStyle;rounded=0;orthogonalLoop=1;jettySize=auto;html=1;exitX=0.5;exitY=1;exitDx=0;exitDy=0;fontFamily=Helvetica;fontSize=8;fontColor=default;endArrow=none;endFill=0;" parent="1" source="75zCX1AZxcEcjXUOBU9U-2" edge="1">
          <mxGeometry relative="1" as="geometry">
            <mxPoint x="483" y="755" as="targetPoint" />
            <Array as="points">
              <mxPoint x="694" y="755" />
            </Array>
          </mxGeometry>
        </mxCell>
        <mxCell id="75zCX1AZxcEcjXUOBU9U-2" value="Создание и редактирование заявки" style="rounded=0;whiteSpace=wrap;html=1;strokeColor=default;align=center;verticalAlign=middle;arcSize=50;fontFamily=Helvetica;fontSize=8;fontColor=default;fillColor=default;" parent="1" vertex="1">
          <mxGeometry x="633" y="625" width="122" height="50" as="geometry" />
        </mxCell>
        <mxCell id="75zCX1AZxcEcjXUOBU9U-7" value="Конец" style="rounded=1;whiteSpace=wrap;html=1;arcSize=50;fontSize=8;" parent="1" vertex="1">
          <mxGeometry x="446.75" y="775" width="90" height="20" as="geometry" />
        </mxCell>
        <mxCell id="bg4ewjE8nQRo9-LeQixM-2" style="edgeStyle=orthogonalEdgeStyle;rounded=0;orthogonalLoop=1;jettySize=auto;html=1;exitX=0.5;exitY=1;exitDx=0;exitDy=0;entryX=0.5;entryY=0;entryDx=0;entryDy=0;fontFamily=Helvetica;fontSize=8;fontColor=default;endArrow=none;endFill=0;" parent="1" source="bg4ewjE8nQRo9-LeQixM-1" target="oDxIAcgtjFUgrs6h1Eg3-6" edge="1">
          <mxGeometry relative="1" as="geometry" />
        </mxCell>
        <mxCell id="bg4ewjE8nQRo9-LeQixM-1" value="Ввод логина и пароля" style="shape=parallelogram;perimeter=parallelogramPerimeter;whiteSpace=wrap;html=1;fixedSize=1;rounded=0;strokeColor=default;align=center;verticalAlign=middle;arcSize=50;fontFamily=Helvetica;fontSize=8;fontColor=default;fillColor=default;" parent="1" vertex="1">
          <mxGeometry x="437.5" y="415" width="108.5" height="30" as="geometry" />
        </mxCell>
        <mxCell id="-lPgI0Q1g1TSf1F-_RuA-1" style="edgeStyle=orthogonalEdgeStyle;rounded=0;orthogonalLoop=1;jettySize=auto;html=1;exitX=0.5;exitY=1;exitDx=0;exitDy=0;fontFamily=Helvetica;fontSize=8;fontColor=default;endArrow=none;endFill=0;" parent="1" edge="1">
          <mxGeometry relative="1" as="geometry">
            <mxPoint x="492" y="755" as="targetPoint" />
            <mxPoint x="492" y="677" as="sourcePoint" />
          </mxGeometry>
        </mxCell>
        <mxCell id="bg4ewjE8nQRo9-LeQixM-3" value="&lt;div&gt;Исполнение заявки&lt;/div&gt;Формирование отчёта" style="rounded=0;whiteSpace=wrap;html=1;strokeColor=default;align=center;verticalAlign=middle;arcSize=50;fontFamily=Helvetica;fontSize=8;fontColor=default;fillColor=default;" parent="1" vertex="1">
          <mxGeometry x="430" y="627" width="122" height="50" as="geometry" />
        </mxCell>
        <mxCell id="bg4ewjE8nQRo9-LeQixM-10" value="Оператор" style="text;html=1;align=center;verticalAlign=middle;whiteSpace=wrap;rounded=0;fontFamily=Helvetica;fontSize=8;fontColor=default;" parent="1" vertex="1">
          <mxGeometry x="314" y="590" width="60" height="30" as="geometry" />
        </mxCell>
        <mxCell id="bg4ewjE8nQRo9-LeQixM-11" value="Мастер" style="text;html=1;align=center;verticalAlign=middle;whiteSpace=wrap;rounded=0;fontFamily=Helvetica;fontSize=8;fontColor=default;" parent="1" vertex="1">
          <mxGeometry x="476.75" y="590" width="60" height="30" as="geometry" />
        </mxCell>
        <mxCell id="bg4ewjE8nQRo9-LeQixM-12" value="Клиент" style="text;html=1;align=center;verticalAlign=middle;whiteSpace=wrap;rounded=0;fontFamily=Helvetica;fontSize=8;fontColor=default;" parent="1" vertex="1">
          <mxGeometry x="664" y="590" width="60" height="30" as="geometry" />
        </mxCell>
        <mxCell id="7RucQhpOWhwhNwuoDyIQ-1" value="Нет" style="text;html=1;align=center;verticalAlign=middle;whiteSpace=wrap;rounded=0;fontFamily=Helvetica;fontSize=8;fontColor=default;" parent="1" vertex="1">
          <mxGeometry x="426" y="465" width="60" height="30" as="geometry" />
        </mxCell>
        <mxCell id="7RucQhpOWhwhNwuoDyIQ-2" value="Да" style="text;html=1;align=center;verticalAlign=middle;whiteSpace=wrap;rounded=0;fontFamily=Helvetica;fontSize=8;fontColor=default;" parent="1" vertex="1">
          <mxGeometry x="475.75" y="510" width="60" height="30" as="geometry" />
        </mxCell>
        <mxCell id="7RucQhpOWhwhNwuoDyIQ-12" style="edgeStyle=orthogonalEdgeStyle;rounded=0;orthogonalLoop=1;jettySize=auto;html=1;exitX=0.5;exitY=1;exitDx=0;exitDy=0;entryX=0.5;entryY=0;entryDx=0;entryDy=0;fontFamily=Helvetica;fontSize=8;fontColor=default;endArrow=none;endFill=0;" parent="1" source="7RucQhpOWhwhNwuoDyIQ-3" target="7RucQhpOWhwhNwuoDyIQ-10" edge="1">
          <mxGeometry relative="1" as="geometry" />
        </mxCell>
        <mxCell id="7RucQhpOWhwhNwuoDyIQ-3" value="Начало" style="rounded=1;whiteSpace=wrap;html=1;arcSize=50;fontSize=8;" parent="1" vertex="1">
          <mxGeometry x="118" y="455" width="90" height="20" as="geometry" />
        </mxCell>
        <mxCell id="7RucQhpOWhwhNwuoDyIQ-14" style="edgeStyle=orthogonalEdgeStyle;rounded=0;orthogonalLoop=1;jettySize=auto;html=1;exitX=0.5;exitY=1;exitDx=0;exitDy=0;entryX=0.5;entryY=0;entryDx=0;entryDy=0;fontFamily=Helvetica;fontSize=8;fontColor=default;endArrow=none;endFill=0;" parent="1" source="7RucQhpOWhwhNwuoDyIQ-5" edge="1">
          <mxGeometry relative="1" as="geometry">
            <mxPoint x="163" y="592" as="targetPoint" />
          </mxGeometry>
        </mxCell>
        <mxCell id="7RucQhpOWhwhNwuoDyIQ-18" style="edgeStyle=orthogonalEdgeStyle;rounded=0;orthogonalLoop=1;jettySize=auto;html=1;exitX=1;exitY=0.5;exitDx=0;exitDy=0;entryX=0.5;entryY=0;entryDx=0;entryDy=0;fontFamily=Helvetica;fontSize=8;fontColor=default;endArrow=none;endFill=0;" parent="1" source="7RucQhpOWhwhNwuoDyIQ-5" target="7RucQhpOWhwhNwuoDyIQ-7" edge="1">
          <mxGeometry relative="1" as="geometry">
            <Array as="points">
              <mxPoint x="253" y="560" />
              <mxPoint x="253" y="705" />
              <mxPoint x="163" y="705" />
            </Array>
          </mxGeometry>
        </mxCell>
        <mxCell id="7RucQhpOWhwhNwuoDyIQ-5" value="Цикл&lt;div&gt;Проходит по строкам таблицы&lt;/div&gt;" style="shape=hexagon;perimeter=hexagonPerimeter2;whiteSpace=wrap;html=1;fixedSize=1;rounded=0;strokeColor=default;align=center;verticalAlign=middle;arcSize=50;fontFamily=Helvetica;fontSize=8;fontColor=default;fillColor=default;" parent="1" vertex="1">
          <mxGeometry x="93" y="542" width="140" height="35" as="geometry" />
        </mxCell>
        <mxCell id="7RucQhpOWhwhNwuoDyIQ-16" style="edgeStyle=orthogonalEdgeStyle;rounded=0;orthogonalLoop=1;jettySize=auto;html=1;exitX=0.5;exitY=1;exitDx=0;exitDy=0;entryX=0.5;entryY=0;entryDx=0;entryDy=0;fontFamily=Helvetica;fontSize=8;fontColor=default;endArrow=none;endFill=0;" parent="1" source="7RucQhpOWhwhNwuoDyIQ-7" target="7RucQhpOWhwhNwuoDyIQ-8" edge="1">
          <mxGeometry relative="1" as="geometry" />
        </mxCell>
        <mxCell id="7RucQhpOWhwhNwuoDyIQ-7" value="Вывод сообщения о количестве заявок" style="rounded=0;whiteSpace=wrap;html=1;strokeColor=default;align=center;verticalAlign=middle;arcSize=50;fontFamily=Helvetica;fontSize=8;fontColor=default;fillColor=default;" parent="1" vertex="1">
          <mxGeometry x="103" y="725" width="120" height="30" as="geometry" />
        </mxCell>
        <mxCell id="7RucQhpOWhwhNwuoDyIQ-8" value="Конец" style="rounded=1;whiteSpace=wrap;html=1;arcSize=50;fontSize=8;" parent="1" vertex="1">
          <mxGeometry x="118" y="773" width="90" height="20" as="geometry" />
        </mxCell>
        <mxCell id="7RucQhpOWhwhNwuoDyIQ-10" value="Объявление переменной для счётчика" style="rounded=0;whiteSpace=wrap;html=1;strokeColor=default;align=center;verticalAlign=middle;arcSize=50;fontFamily=Helvetica;fontSize=8;fontColor=default;fillColor=default;" parent="1" vertex="1">
          <mxGeometry x="103" y="495" width="120" height="30" as="geometry" />
        </mxCell>
        <mxCell id="7RucQhpOWhwhNwuoDyIQ-13" style="edgeStyle=orthogonalEdgeStyle;rounded=0;orthogonalLoop=1;jettySize=auto;html=1;exitX=0.5;exitY=1;exitDx=0;exitDy=0;entryX=0.498;entryY=-0.049;entryDx=0;entryDy=0;entryPerimeter=0;fontFamily=Helvetica;fontSize=8;fontColor=default;endArrow=none;endFill=0;" parent="1" source="7RucQhpOWhwhNwuoDyIQ-10" target="7RucQhpOWhwhNwuoDyIQ-5" edge="1">
          <mxGeometry relative="1" as="geometry" />
        </mxCell>
        <mxCell id="GW92BsjV6hmsyaIqP19_-5" value="" style="endArrow=none;html=1;rounded=0;fontFamily=Helvetica;fontSize=8;fontColor=default;" parent="1" edge="1">
          <mxGeometry width="50" height="50" relative="1" as="geometry">
            <mxPoint x="343" y="615" as="sourcePoint" />
            <mxPoint x="694.6666666666666" y="615" as="targetPoint" />
          </mxGeometry>
        </mxCell>
        <mxCell id="GW92BsjV6hmsyaIqP19_-6" value="" style="endArrow=none;html=1;rounded=0;fontFamily=Helvetica;fontSize=8;fontColor=default;exitX=0.491;exitY=-0.002;exitDx=0;exitDy=0;exitPerimeter=0;" parent="1" source="oDxIAcgtjFUgrs6h1Eg3-19" edge="1">
          <mxGeometry width="50" height="50" relative="1" as="geometry">
            <mxPoint x="343" y="645" as="sourcePoint" />
            <mxPoint x="343" y="615" as="targetPoint" />
          </mxGeometry>
        </mxCell>
        <mxCell id="GW92BsjV6hmsyaIqP19_-8" value="" style="endArrow=none;html=1;rounded=0;fontFamily=Helvetica;fontSize=8;fontColor=default;entryX=0.468;entryY=0.002;entryDx=0;entryDy=0;entryPerimeter=0;" parent="1" edge="1">
          <mxGeometry width="50" height="50" relative="1" as="geometry">
            <mxPoint x="693.88" y="615" as="sourcePoint" />
            <mxPoint x="693.88" y="625" as="targetPoint" />
          </mxGeometry>
        </mxCell>
        <mxCell id="GW92BsjV6hmsyaIqP19_-10" style="edgeStyle=orthogonalEdgeStyle;rounded=0;orthogonalLoop=1;jettySize=auto;html=1;entryX=0;entryY=0.5;entryDx=0;entryDy=0;fontFamily=Helvetica;fontSize=8;fontColor=default;endArrow=openThin;endFill=0;exitX=0;exitY=0.5;exitDx=0;exitDy=0;" parent="1" source="GW92BsjV6hmsyaIqP19_-12" target="7RucQhpOWhwhNwuoDyIQ-5" edge="1">
          <mxGeometry relative="1" as="geometry">
            <Array as="points">
              <mxPoint x="73" y="682" />
              <mxPoint x="73" y="560" />
            </Array>
          </mxGeometry>
        </mxCell>
        <mxCell id="GW92BsjV6hmsyaIqP19_-13" style="edgeStyle=orthogonalEdgeStyle;rounded=0;orthogonalLoop=1;jettySize=auto;html=1;exitX=0.5;exitY=1;exitDx=0;exitDy=0;entryX=0.5;entryY=0;entryDx=0;entryDy=0;fontFamily=Helvetica;fontSize=8;fontColor=default;endArrow=none;endFill=0;" parent="1" source="GW92BsjV6hmsyaIqP19_-9" target="GW92BsjV6hmsyaIqP19_-12" edge="1">
          <mxGeometry relative="1" as="geometry" />
        </mxCell>
        <mxCell id="GW92BsjV6hmsyaIqP19_-14" style="edgeStyle=orthogonalEdgeStyle;rounded=0;orthogonalLoop=1;jettySize=auto;html=1;exitX=0;exitY=0.5;exitDx=0;exitDy=0;fontFamily=Helvetica;fontSize=8;fontColor=default;endArrow=none;endFill=0;" parent="1" source="GW92BsjV6hmsyaIqP19_-9" edge="1">
          <mxGeometry relative="1" as="geometry">
            <mxPoint x="73" y="622.6666666666666" as="targetPoint" />
          </mxGeometry>
        </mxCell>
        <mxCell id="GW92BsjV6hmsyaIqP19_-9" value="Статус заявки равен&amp;nbsp;&lt;font style=&quot;font-size: 7px;&quot;&gt;&lt;span style=&quot;line-height: 107%; font-family: &amp;quot;Times New Roman&amp;quot;, serif; font-size: 7px;&quot;&gt;«Новая заявка&lt;/span&gt;&lt;span style=&quot;line-height: 107%; font-family: &amp;quot;Times New Roman&amp;quot;, serif; font-size: 7px;&quot;&gt;»&lt;/span&gt;&lt;/font&gt;" style="rhombus;whiteSpace=wrap;html=1;rounded=0;strokeColor=default;align=center;verticalAlign=middle;arcSize=50;fontFamily=Helvetica;fontSize=7;fontColor=default;fillColor=default;" parent="1" vertex="1">
          <mxGeometry x="123" y="590" width="90" height="65" as="geometry" />
        </mxCell>
        <mxCell id="GW92BsjV6hmsyaIqP19_-12" value="Счётчик переменной заявок увеличивается на один" style="rounded=0;whiteSpace=wrap;html=1;strokeColor=default;align=center;verticalAlign=middle;arcSize=50;fontFamily=Helvetica;fontSize=8;fontColor=default;fillColor=default;" parent="1" vertex="1">
          <mxGeometry x="108" y="667" width="120" height="30" as="geometry" />
        </mxCell>
        <mxCell id="GW92BsjV6hmsyaIqP19_-15" value="Нет" style="text;html=1;align=center;verticalAlign=middle;whiteSpace=wrap;rounded=0;fontFamily=Helvetica;fontSize=8;fontColor=default;" parent="1" vertex="1">
          <mxGeometry x="90" y="597" width="60" height="30" as="geometry" />
        </mxCell>
        <mxCell id="GW92BsjV6hmsyaIqP19_-16" value="Да" style="text;html=1;align=center;verticalAlign=middle;whiteSpace=wrap;rounded=0;fontFamily=Helvetica;fontSize=8;fontColor=default;" parent="1" vertex="1">
          <mxGeometry x="151" y="643" width="60" height="30" as="geometry" />
        </mxCell>
      </root>
    </mxGraphModel>
  </diagram>
</mxfile>
